<svg width="30" height="35" viewBox="0 0 30 35" fill="none" xmlns="http://www.w3.org/2000/svg">
<path d="M13.5 21.75V34.75H0.5C0.5 31.3022 1.86964 27.9956 4.30761 25.5576C6.74558 23.1196 10.0522 21.75 13.5 21.75ZM13.5 20.125C8.11312 20.125 3.75 15.7619 3.75 10.375C3.75 4.98812 8.11312 0.625 13.5 0.625C18.8869 0.625 23.25 4.98812 23.25 10.375C23.25 15.7619 18.8869 20.125 13.5 20.125ZM28.125 26.625H29.75V34.75H16.75V26.625H18.375V25C18.375 23.7071 18.8886 22.4671 19.8029 21.5529C20.7171 20.6386 21.9571 20.125 23.25 20.125C24.5429 20.125 25.7829 20.6386 26.6971 21.5529C27.6114 22.4671 28.125 23.7071 28.125 25V26.625ZM24.875 26.625V25C24.875 24.569 24.7038 24.1557 24.399 23.851C24.0943 23.5462 23.681 23.375 23.25 23.375C22.819 23.375 22.4057 23.5462 22.101 23.851C21.7962 24.1557 21.625 24.569 21.625 25V26.625H24.875Z" fill="black"/>
</svg>
